<svg xmlns="http://www.w3.org/2000/svg" xmlns:xlink="http://www.w3.org/1999/xlink" width="268" zoomAndPan="magnify" viewBox="0 0 200.87999 41.25" height="55" preserveAspectRatio="xMidYMid meet" version="1.0"><defs><g/><clipPath id="20aa2823bc"><path d="M 64 1 L 73 1 L 73 15 L 64 15 Z M 64 1 " clip-rule="nonzero"/></clipPath><clipPath id="bedbb7f455"><path d="M 46.851562 14.328125 L 49.332031 -3.175781 L 77.777344 0.855469 L 75.296875 18.359375 Z M 46.851562 14.328125 " clip-rule="nonzero"/></clipPath><clipPath id="20663fde90"><path d="M 46.851562 14.328125 L 49.332031 -3.175781 L 77.777344 0.855469 L 75.296875 18.359375 Z M 46.851562 14.328125 " clip-rule="nonzero"/></clipPath><clipPath id="7418834b00"><path d="M 50 1 L 76 1 L 76 17 L 50 17 Z M 50 1 " clip-rule="nonzero"/></clipPath><clipPath id="3de42499cb"><path d="M 46.851562 14.328125 L 49.332031 -3.175781 L 77.777344 0.855469 L 75.296875 18.359375 Z M 46.851562 14.328125 " clip-rule="nonzero"/></clipPath><clipPath id="00d75f03be"><path d="M 46.851562 14.328125 L 49.332031 -3.175781 L 77.777344 0.855469 L 75.296875 18.359375 Z M 46.851562 14.328125 " clip-rule="nonzero"/></clipPath><clipPath id="384014a826"><path d="M 51 1 L 75 1 L 75 13 L 51 13 Z M 51 1 " clip-rule="nonzero"/></clipPath><clipPath id="2910234c0f"><path d="M 46.851562 14.328125 L 49.332031 -3.175781 L 77.777344 0.855469 L 75.296875 18.359375 Z M 46.851562 14.328125 " clip-rule="nonzero"/></clipPath><clipPath id="c10918eda6"><path d="M 46.851562 14.328125 L 49.332031 -3.175781 L 77.777344 0.855469 L 75.296875 18.359375 Z M 46.851562 14.328125 " clip-rule="nonzero"/></clipPath></defs><g fill="#ffffff" fill-opacity="1"><g transform="translate(10.245364, 33.04355)"><g><path d="M 1.84375 0 L 7.5625 0 L 7.5625 -8.96875 L 16.171875 -8.96875 L 16.171875 -13.328125 L 7.5625 -13.328125 L 7.5625 -18.953125 L 18.15625 -18.953125 L 18.15625 -23.84375 L 1.84375 -23.84375 Z M 1.84375 0 "/></g></g></g><g fill="#ffffff" fill-opacity="1"><g transform="translate(28.98836, 33.04355)"><g><path d="M 11.046875 -17.6875 C 8.9375 -17.6875 7.171875 -16.4375 6.234375 -14.359375 L 6.1875 -14.359375 L 5.421875 -17.140625 L 1.34375 -17.140625 L 1.34375 0 L 6.46875 0 L 6.46875 -9.34375 C 6.46875 -12.15625 7.640625 -13.828125 9.546875 -13.828125 C 11.015625 -13.828125 11.984375 -12.625 12.15625 -10.515625 L 16.46875 -11.6875 C 16.078125 -15.5 14.03125 -17.6875 11.046875 -17.6875 Z M 11.046875 -17.6875 "/></g></g></g><g fill="#ffffff" fill-opacity="1"><g transform="translate(45.957467, 33.04355)"><g><path d="M 11.015625 0.671875 C 14.703125 0.671875 17.921875 -0.90625 19.28125 -3.1875 L 16.375 -5.421875 C 15.375 -4.046875 13.359375 -3.078125 11.21875 -3.078125 C 8.40625 -3.078125 6.328125 -4.6875 6.03125 -7.171875 L 18.6875 -7.171875 C 18.8125 -7.703125 18.921875 -8.4375 18.921875 -9.109375 C 18.890625 -14.265625 15.375 -17.8125 10.015625 -17.8125 C 4.515625 -17.8125 0.734375 -14.09375 0.765625 -8.671875 C 0.765625 -3.140625 4.984375 0.671875 11.015625 0.671875 Z M 6 -10.109375 C 6.296875 -12.515625 7.875 -14.15625 10.015625 -14.15625 C 12.125 -14.15625 13.5625 -12.65625 13.734375 -10.109375 Z M 6 -10.109375 "/></g></g></g><g fill="#ffffff" fill-opacity="1"><g transform="translate(65.871902, 33.04355)"><g><path d="M 9 0.609375 C 13.921875 0.609375 17.34375 -1.671875 17.34375 -5.21875 C 17.34375 -8.0625 15.5 -9.609375 11.1875 -10.375 L 8.640625 -10.8125 C 6.59375 -11.1875 5.71875 -11.71875 5.71875 -12.59375 C 5.765625 -13.625 6.96875 -14.46875 8.578125 -14.46875 C 10.40625 -14.46875 11.78125 -13.53125 11.921875 -12.046875 L 16.28125 -12.6875 C 15.84375 -15.703125 12.796875 -17.75 8.734375 -17.75 C 4.359375 -17.75 1.375 -15.609375 1.375 -12.125 C 1.375 -9.3125 2.984375 -7.875 6.765625 -7.265625 L 9.3125 -6.859375 C 11.71875 -6.46875 12.75 -5.859375 12.75 -4.828125 C 12.75 -3.65625 11.21875 -2.8125 9.3125 -2.8125 C 7 -2.8125 5.21875 -3.984375 5.0625 -5.828125 L 0.609375 -5.328125 C 0.84375 -1.5 4.390625 0.609375 9 0.609375 Z M 9 0.609375 "/></g></g></g><g fill="#ffffff" fill-opacity="1"><g transform="translate(83.778156, 33.04355)"><g><path d="M 1.34375 0 L 6.46875 0 L 6.46875 -9.46875 C 6.46875 -11.8125 8 -13.390625 10.21875 -13.390625 C 11.984375 -13.390625 13.09375 -12.1875 13.09375 -10.25 L 13.09375 0 L 18.21875 0 L 18.21875 -11.8125 C 18.21875 -15.46875 16.078125 -17.640625 12.5625 -17.640625 C 9.84375 -17.640625 7.734375 -16.34375 6.5 -14.03125 L 6.46875 -14.03125 L 6.46875 -24.84375 L 1.34375 -24.84375 Z M 1.34375 0 "/></g></g></g><g fill="#0caf64" fill-opacity="1"><g transform="translate(103.230502, 33.04355)"><g><path d="M 1.84375 0 L 7.0625 0 L 7.0625 -16.703125 L 7.125 -16.703125 L 13.96875 0 L 18.625 0 L 25.421875 -16.75 L 25.484375 -16.75 L 25.484375 0 L 30.734375 0 L 30.734375 -23.84375 L 23.34375 -23.84375 L 16.34375 -6.390625 L 16.28125 -6.390625 L 9.3125 -23.84375 L 1.84375 -23.84375 Z M 1.84375 0 "/></g></g></g><g fill="#0caf64" fill-opacity="1"><g transform="translate(135.796457, 33.04355)"><g><path d="M 6.625 0.5 C 9.515625 0.5 11.75 -0.90625 12.859375 -2.953125 L 12.890625 -2.953125 L 12.953125 -2.34375 C 13.1875 -0.765625 14.796875 0.5 16.875 0.5 C 18.453125 0.5 20.21875 -0.03125 21.265625 -1.078125 L 20.0625 -3.78125 C 19.6875 -3.3125 19.15625 -3.015625 18.71875 -3.015625 C 18.1875 -3.015625 17.84375 -3.484375 17.84375 -4.25 L 17.84375 -10.875 C 17.84375 -15.171875 14.59375 -17.8125 9.578125 -17.8125 C 4.65625 -17.8125 1.34375 -15.234375 1.03125 -11.6875 L 6.03125 -10.921875 C 6.1875 -12.625 7.640625 -14.09375 9.703125 -14.09375 C 11.546875 -14.09375 12.828125 -13.125 12.828125 -11.65625 C 12.828125 -10.953125 12.28125 -10.484375 11.484375 -10.40625 L 8.171875 -10.015625 C 3.046875 -9.46875 0.5 -7.328125 0.5 -4.390625 C 0.5 -1.4375 3.046875 0.5 6.625 0.5 Z M 8.578125 -3.015625 C 6.859375 -3.015625 5.625 -3.8125 5.625 -4.984375 C 5.625 -6.09375 6.59375 -7 9.4375 -7.328125 L 12.71875 -7.703125 L 12.71875 -7 C 12.71875 -4.6875 10.984375 -3.015625 8.578125 -3.015625 Z M 8.578125 -3.015625 "/></g></g></g><g fill="#0caf64" fill-opacity="1"><g transform="translate(157.049678, 33.04355)"><g><path d="M 11.046875 -17.6875 C 8.9375 -17.6875 7.171875 -16.4375 6.234375 -14.359375 L 6.1875 -14.359375 L 5.421875 -17.140625 L 1.34375 -17.140625 L 1.34375 0 L 6.46875 0 L 6.46875 -9.34375 C 6.46875 -12.15625 7.640625 -13.828125 9.546875 -13.828125 C 11.015625 -13.828125 11.984375 -12.625 12.15625 -10.515625 L 16.46875 -11.6875 C 16.078125 -15.5 14.03125 -17.6875 11.046875 -17.6875 Z M 11.046875 -17.6875 "/></g></g></g><g fill="#0caf64" fill-opacity="1"><g transform="translate(174.018785, 33.04355)"><g><path d="M 10.046875 0.671875 C 12.515625 0.671875 15 -0.5 16.203125 -2.4375 L 14.671875 -5.65625 C 13.859375 -4.1875 12.71875 -3.453125 11.1875 -3.453125 C 9.671875 -3.453125 8.5 -4.59375 8.5 -6.46875 L 8.5 -13.265625 L 15.296875 -13.265625 L 15.296875 -17.140625 L 8.5 -17.140625 L 8.5 -22.96875 L 3.375 -21.859375 L 3.375 -17.140625 L 0.171875 -17.140625 L 0.171875 -13.265625 L 3.375 -13.265625 L 3.375 -5.65625 C 3.375 -1.78125 5.921875 0.671875 10.046875 0.671875 Z M 10.046875 0.671875 "/></g></g></g><g clip-path="url(#20aa2823bc)"><g clip-path="url(#bedbb7f455)"><g clip-path="url(#20663fde90)"><path fill="#0caf64" d="M 67.679688 1.660156 C 64.507812 3.535156 63.328125 10.863281 65.175781 14.648438 C 65.175781 14.648438 66.34375 10.859375 70.558594 7.21875 C 74.183594 4.089844 70.402344 0.0546875 67.679688 1.660156 Z M 70.511719 2.667969 C 68.691406 1.953125 67.527344 2.914062 67.007812 4.339844 C 67.007812 4.339844 66.8125 2.957031 67.871094 2.238281 C 69.175781 1.351562 70.511719 2.667969 70.511719 2.667969 Z M 70.511719 2.667969 " fill-opacity="1" fill-rule="nonzero"/></g></g></g><g clip-path="url(#7418834b00)"><g clip-path="url(#3de42499cb)"><g clip-path="url(#00d75f03be)"><path fill="#0caf64" d="M 67.054688 16.496094 C 67.054688 16.496094 69.15625 14.957031 72.808594 14.691406 C 75.945312 14.460938 75.53125 10.851562 73.464844 10.632812 C 71.058594 10.378906 67.5625 13.777344 67.054688 16.496094 Z M 53.367188 9.660156 C 59.78125 12.457031 62.589844 16.558594 62.589844 16.558594 C 63.394531 11.335938 59.25 2.992188 54.75 1.929688 C 50.890625 1.015625 47.863281 7.257812 53.367188 9.660156 Z M 53.367188 9.660156 " fill-opacity="1" fill-rule="nonzero"/></g></g></g><g clip-path="url(#384014a826)"><g clip-path="url(#2910234c0f)"><g clip-path="url(#c10918eda6)"><path fill="#ffffff" d="M 67.871094 2.238281 C 66.8125 2.957031 67.007812 4.339844 67.007812 4.339844 C 67.527344 2.914062 68.691406 1.953125 70.511719 2.667969 C 70.511719 2.667969 69.175781 1.351562 67.871094 2.238281 Z M 51.882812 4.375 C 53.730469 2.761719 55.511719 3.410156 56.726562 4.875 C 56.726562 4.875 56.375 3.160156 54.820312 2.753906 C 52.90625 2.257812 51.882812 4.375 51.882812 4.375 Z M 72.132812 11.617188 C 73.082031 11.320312 74.050781 11.546875 74.402344 12.78125 C 74.402344 12.78125 74.554688 11.558594 73.574219 11.230469 C 72.773438 10.964844 72.132812 11.617188 72.132812 11.617188 Z M 72.132812 11.617188 " fill-opacity="1" fill-rule="nonzero"/></g></g></g></svg>