<svg xmlns="http://www.w3.org/2000/svg" xmlns:xlink="http://www.w3.org/1999/xlink" width="268" zoomAndPan="magnify" viewBox="0 0 200.87999 41.25" height="55" preserveAspectRatio="xMidYMid meet" version="1.0"><defs><g/><clipPath id="a5d9d4a832"><path d="M 50 3 L 75 3 L 75 16.859375 L 50 16.859375 Z M 50 3 " clip-rule="nonzero"/></clipPath></defs><g fill="#ffffff" fill-opacity="1"><g transform="translate(12.667572, 33.010856)"><g><path d="M 1.796875 0 L 7.359375 0 L 7.359375 -8.734375 L 15.734375 -8.734375 L 15.734375 -12.96875 L 7.359375 -12.96875 L 7.359375 -18.4375 L 17.65625 -18.4375 L 17.65625 -23.203125 L 1.796875 -23.203125 Z M 1.796875 0 "/></g></g></g><g fill="#ffffff" fill-opacity="1"><g transform="translate(30.907814, 33.010856)"><g><path d="M 10.75 -17.203125 C 8.703125 -17.203125 6.96875 -16 6.0625 -13.96875 L 6.03125 -13.96875 L 5.28125 -16.6875 L 1.296875 -16.6875 L 1.296875 0 L 6.28125 0 L 6.28125 -9.09375 C 6.28125 -11.828125 7.421875 -13.453125 9.28125 -13.453125 C 10.71875 -13.453125 11.65625 -12.28125 11.828125 -10.234375 L 16.03125 -11.375 C 15.640625 -15.078125 13.65625 -17.203125 10.75 -17.203125 Z M 10.75 -17.203125 "/></g></g></g><g fill="#ffffff" fill-opacity="1"><g transform="translate(47.421746, 33.010856)"><g><path d="M 10.71875 0.65625 C 14.296875 0.65625 17.421875 -0.875 18.765625 -3.09375 L 15.9375 -5.28125 C 14.953125 -3.9375 13 -3 10.90625 -3 C 8.171875 -3 6.15625 -4.5625 5.859375 -6.96875 L 18.171875 -6.96875 C 18.3125 -7.5 18.40625 -8.203125 18.40625 -8.859375 C 18.375 -13.875 14.953125 -17.328125 9.734375 -17.328125 C 4.390625 -17.328125 0.71875 -13.71875 0.75 -8.4375 C 0.75 -3.0625 4.859375 0.65625 10.71875 0.65625 Z M 5.828125 -9.84375 C 6.125 -12.1875 7.65625 -13.78125 9.734375 -13.78125 C 11.796875 -13.78125 13.1875 -12.3125 13.359375 -9.84375 Z M 5.828125 -9.84375 "/></g></g></g><g fill="#ffffff" fill-opacity="1"><g transform="translate(66.802012, 33.010856)"><g><path d="M 8.765625 0.59375 C 13.546875 0.59375 16.875 -1.625 16.875 -5.078125 C 16.875 -7.84375 15.078125 -9.34375 10.875 -10.09375 L 8.40625 -10.515625 C 6.421875 -10.875 5.578125 -11.40625 5.578125 -12.25 C 5.609375 -13.265625 6.78125 -14.078125 8.34375 -14.078125 C 10.125 -14.078125 11.46875 -13.15625 11.59375 -11.734375 L 15.828125 -12.34375 C 15.40625 -15.28125 12.4375 -17.265625 8.5 -17.265625 C 4.234375 -17.265625 1.328125 -15.1875 1.328125 -11.796875 C 1.328125 -9.0625 2.90625 -7.65625 6.578125 -7.0625 L 9.0625 -6.671875 C 11.40625 -6.28125 12.40625 -5.703125 12.40625 -4.6875 C 12.40625 -3.546875 10.90625 -2.734375 9.0625 -2.734375 C 6.8125 -2.734375 5.078125 -3.875 4.921875 -5.671875 L 0.59375 -5.1875 C 0.8125 -1.46875 4.265625 0.59375 8.765625 0.59375 Z M 8.765625 0.59375 "/></g></g></g><g fill="#ffffff" fill-opacity="1"><g transform="translate(84.227958, 33.010856)"><g><path d="M 1.296875 0 L 6.28125 0 L 6.28125 -9.21875 C 6.28125 -11.5 7.78125 -13.03125 9.9375 -13.03125 C 11.65625 -13.03125 12.734375 -11.859375 12.734375 -9.96875 L 12.734375 0 L 17.71875 0 L 17.71875 -11.5 C 17.71875 -15.046875 15.640625 -17.171875 12.21875 -17.171875 C 9.578125 -17.171875 7.53125 -15.890625 6.3125 -13.65625 L 6.28125 -13.65625 L 6.28125 -24.171875 L 1.296875 -24.171875 Z M 1.296875 0 "/></g></g></g><g fill="#ffde59" fill-opacity="1"><g transform="translate(103.155151, 33.010856)"><g><path d="M 1.796875 0 L 6.875 0 L 6.875 -16.25 L 6.9375 -16.25 L 13.578125 0 L 18.109375 0 L 24.734375 -16.296875 L 24.796875 -16.296875 L 24.796875 0 L 29.90625 0 L 29.90625 -23.203125 L 22.703125 -23.203125 L 15.890625 -6.21875 L 15.828125 -6.21875 L 9.0625 -23.203125 L 1.796875 -23.203125 Z M 1.796875 0 "/></g></g></g><g fill="#ffde59" fill-opacity="1"><g transform="translate(134.847577, 33.010856)"><g><path d="M 6.453125 0.484375 C 9.25 0.484375 11.4375 -0.875 12.515625 -2.859375 L 12.546875 -2.859375 L 12.609375 -2.28125 C 12.828125 -0.75 14.40625 0.484375 16.421875 0.484375 C 17.953125 0.484375 19.671875 -0.03125 20.6875 -1.046875 L 19.515625 -3.6875 C 19.15625 -3.21875 18.640625 -2.9375 18.21875 -2.9375 C 17.6875 -2.9375 17.359375 -3.390625 17.359375 -4.140625 L 17.359375 -10.59375 C 17.359375 -14.765625 14.203125 -17.328125 9.3125 -17.328125 C 4.53125 -17.328125 1.296875 -14.828125 1.015625 -11.375 L 5.859375 -10.625 C 6.03125 -12.28125 7.421875 -13.71875 9.453125 -13.71875 C 11.234375 -13.71875 12.484375 -12.765625 12.484375 -11.34375 C 12.484375 -10.65625 11.953125 -10.203125 11.171875 -10.125 L 7.953125 -9.734375 C 2.96875 -9.21875 0.484375 -7.140625 0.484375 -4.265625 C 0.484375 -1.40625 2.96875 0.484375 6.453125 0.484375 Z M 8.34375 -2.9375 C 6.671875 -2.9375 5.46875 -3.71875 5.46875 -4.859375 C 5.46875 -5.921875 6.421875 -6.8125 9.1875 -7.140625 L 12.375 -7.5 L 12.375 -6.8125 C 12.375 -4.5625 10.6875 -2.9375 8.34375 -2.9375 Z M 8.34375 -2.9375 "/></g></g></g><g fill="#ffde59" fill-opacity="1"><g transform="translate(155.530707, 33.010856)"><g><path d="M 10.75 -17.203125 C 8.703125 -17.203125 6.96875 -16 6.0625 -13.96875 L 6.03125 -13.96875 L 5.28125 -16.6875 L 1.296875 -16.6875 L 1.296875 0 L 6.28125 0 L 6.28125 -9.09375 C 6.28125 -11.828125 7.421875 -13.453125 9.28125 -13.453125 C 10.71875 -13.453125 11.65625 -12.28125 11.828125 -10.234375 L 16.03125 -11.375 C 15.640625 -15.078125 13.65625 -17.203125 10.75 -17.203125 Z M 10.75 -17.203125 "/></g></g></g><g fill="#ffde59" fill-opacity="1"><g transform="translate(172.044639, 33.010856)"><g><path d="M 9.78125 0.65625 C 12.1875 0.65625 14.59375 -0.484375 15.765625 -2.375 L 14.265625 -5.5 C 13.484375 -4.078125 12.375 -3.359375 10.875 -3.359375 C 9.421875 -3.359375 8.28125 -4.46875 8.28125 -6.28125 L 8.28125 -12.90625 L 14.890625 -12.90625 L 14.890625 -16.6875 L 8.28125 -16.6875 L 8.28125 -22.34375 L 3.296875 -21.28125 L 3.296875 -16.6875 L 0.15625 -16.6875 L 0.15625 -12.90625 L 3.296875 -12.90625 L 3.296875 -5.5 C 3.296875 -1.734375 5.765625 0.65625 9.78125 0.65625 Z M 9.78125 0.65625 "/></g></g></g><path fill="#ffde59" d="M 66.332031 1.90625 C 63.550781 4.128906 63.414062 11.304688 65.695312 14.679688 C 65.695312 14.679688 66.300781 10.894531 69.84375 6.835938 C 72.886719 3.347656 68.71875 -0.00390625 66.332031 1.90625 Z M 69.179688 2.484375 C 67.339844 2.046875 66.355469 3.125 66.050781 4.558594 C 66.050781 4.558594 65.675781 3.265625 66.59375 2.433594 C 67.722656 1.40625 69.179688 2.484375 69.179688 2.484375 Z M 69.179688 2.484375 " fill-opacity="1" fill-rule="nonzero"/><g clip-path="url(#a5d9d4a832)"><path fill="#00bf63" d="M 67.746094 16.195312 C 67.746094 16.195312 69.546875 14.4375 73.007812 13.683594 C 75.980469 13.039062 75.097656 9.640625 73.089844 9.710938 C 70.75 9.792969 67.863281 13.523438 67.746094 16.195312 Z M 53.714844 11.503906 C 60.234375 13.3125 63.480469 16.859375 63.480469 16.859375 C 63.542969 11.746094 58.441406 4.324219 53.992188 3.914062 C 50.171875 3.5625 48.117188 9.953125 53.714844 11.503906 Z M 53.714844 11.503906 " fill-opacity="1" fill-rule="nonzero"/></g><path fill="#ffffff" d="M 66.59375 2.433594 C 65.675781 3.265625 66.050781 4.558594 66.050781 4.558594 C 66.355469 3.125 67.339844 2.046875 69.179688 2.484375 C 69.179688 2.484375 67.722656 1.40625 66.59375 2.433594 Z M 51.574219 6.644531 C 53.125 4.851562 54.917969 5.230469 56.28125 6.46875 C 56.28125 6.46875 55.714844 4.871094 54.167969 4.699219 C 52.269531 4.480469 51.574219 6.644531 51.574219 6.644531 Z M 71.945312 10.835938 C 72.816406 10.421875 73.773438 10.503906 74.273438 11.640625 C 74.273438 11.640625 74.257812 10.449219 73.273438 10.269531 C 72.472656 10.121094 71.945312 10.835938 71.945312 10.835938 Z M 71.945312 10.835938 " fill-opacity="1" fill-rule="nonzero"/></svg>